{
	"asset":{
		"generator":"Sketchfab-16.59.0",
		"version":"2.0",
		"copyright":""
	},
	"scenes":[{
		"nodes":[0]
	}],
	"nodes":[{
		"name":"crystal",
		"children":[1,
		2,
		3,
		4,
		5,
		6,
		7,
		8,
		9,
		10,
		11,
		12,
		13,
		14,
		15,
		16,
		17,
		18,
		19,
		20]
	},
	{
		"name":"Crystal_low.002_Crystal_0_fracturepart1",
		"mesh":0,
		"translation":[-0.005975076463073492,
		-0.004127363208681345,
		0.014697849750518799],
		"rotation":[-0.015520159155130387,
		-0.35400286316871645,
		0.17148886620998383,
		-0.9192565679550171],
		"scale":[1.0,
		1.0,
		1.0]
	},
	{
		"name":"Crystal_low.002_Crystal_0_fracturepart2",
		"mesh":1,
		"translation":[-0.009956581518054009,
		0.02615664154291153,
		0.0056597390212118629],
		"rotation":[-0.015520159155130387,
		-0.35400286316871645,
		0.17148886620998383,
		-0.9192565679550171],
		"scale":[1.0,
		1.0,
		1.0]
	},
	{
		"name":"Crystal_low.002_Crystal_0_fracturepart3",
		"mesh":2,
		"translation":[-0.01721702516078949,
		-0.005720611661672592,
		0.001581789692863822],
		"rotation":[-0.015520159155130387,
		-0.35400286316871645,
		0.17148886620998383,
		-0.9192565679550171],
		"scale":[1.0,
		1.0,
		1.0]
	},
	{
		"name":"Crystal_low.002_Crystal_0_fracturepart4",
		"mesh":3,
		"translation":[0.012445671483874321,
		0.017667651176452638,
		0.0036071783397346737],
		"rotation":[-0.015520159155130387,
		-0.35400286316871645,
		0.17148886620998383,
		-0.9192565679550171],
		"scale":[1.0,
		1.0,
		1.0]
	},
	{
		"name":"Crystal_low.002_Crystal_0_fracturepart5",
		"mesh":4,
		"translation":[-0.00034344487357884645,
		0.027581285685300828,
		-0.013518504798412323],
		"rotation":[-0.015520159155130387,
		-0.35400286316871645,
		0.17148886620998383,
		-0.9192565679550171],
		"scale":[1.0,
		1.0,
		1.0]
	},
	{
		"name":"Crystal_low.002_Crystal_0_fracturepart6",
		"mesh":5,
		"translation":[0.0022779875434935095,
		0.035760797560214999,
		0.005602472461760044],
		"rotation":[-0.015520159155130387,
		-0.35400286316871645,
		0.17148886620998383,
		-0.9192565679550171],
		"scale":[1.0,
		1.0,
		1.0]
	},
	{
		"name":"Crystal_low.002_Crystal_0_fracturepart7",
		"mesh":6,
		"translation":[0.00037436754791997373,
		-0.044553328305482867,
		-0.007842984981834889],
		"rotation":[-0.015520159155130387,
		-0.35400286316871645,
		0.17148886620998383,
		-0.9192565679550171],
		"scale":[1.0,
		1.0,
		1.0]
	},
	{
		"name":"Crystal_low.002_Crystal_0_fracturepart8",
		"mesh":7,
		"translation":[0.02201562374830246,
		0.04863996431231499,
		-0.0054091778583824638],
		"rotation":[-0.015520159155130387,
		-0.35400286316871645,
		0.17148886620998383,
		-0.9192565679550171],
		"scale":[1.0,
		1.0,
		1.0]
	},
	{
		"name":"Crystal_low.002_Crystal_0_fracturepart9",
		"mesh":8,
		"translation":[0.018589016050100328,
		0.02527117356657982,
		-0.004639906343072653],
		"rotation":[-0.015520159155130387,
		-0.35400286316871645,
		0.17148886620998383,
		-0.9192565679550171],
		"scale":[1.0,
		1.0,
		1.0]
	},
	{
		"name":"Crystal_low.002_Crystal_0_fracturepart10",
		"mesh":9,
		"translation":[0.005473379511386156,
		-0.018053853884339334,
		0.008353646844625473],
		"rotation":[-0.015520159155130387,
		-0.35400286316871645,
		0.17148886620998383,
		-0.9192565679550171],
		"scale":[1.0,
		1.0,
		1.0]
	},
	{
		"name":"Crystal_low.002_Crystal_0_fracturepart11",
		"mesh":10,
		"translation":[0.008480742573738099,
		-0.02748378925025463,
		-0.0022790133953094484],
		"rotation":[-0.015520159155130387,
		-0.35400286316871645,
		0.17148886620998383,
		-0.9192565679550171],
		"scale":[1.0,
		1.0,
		1.0]
	},
	{
		"name":"Crystal_low.002_Crystal_0_fracturepart12",
		"mesh":11,
		"translation":[-0.021012993529438974,
		-0.04235181584954262,
		-0.004256744869053364],
		"rotation":[-0.015520159155130387,
		-0.35400286316871645,
		0.17148886620998383,
		-0.9192565679550171],
		"scale":[1.0,
		1.0,
		1.0]
	},
	{
		"name":"Crystal_low.002_Crystal_0_fracturepart13",
		"mesh":12,
		"translation":[-0.005277944263070822,
		-0.03265730291604996,
		0.01753894053399563],
		"rotation":[-0.015520159155130387,
		-0.35400286316871645,
		0.17148886620998383,
		-0.9192565679550171],
		"scale":[1.0,
		1.0,
		1.0]
	},
	{
		"name":"Crystal_low.002_Crystal_0_fracturepart14",
		"mesh":13,
		"translation":[0.0007394928252324462,
		-0.007253815419971943,
		-0.010017750784754753],
		"rotation":[-0.015520159155130387,
		-0.35400286316871645,
		0.17148886620998383,
		-0.9192565679550171],
		"scale":[1.0,
		1.0,
		1.0]
	},
	{
		"name":"Crystal_low.002_Crystal_0_fracturepart15",
		"mesh":14,
		"translation":[0.004503616131842136,
		-0.0124893793836236,
		-0.0065880208276212219],
		"rotation":[-0.015520159155130387,
		-0.35400286316871645,
		0.17148886620998383,
		-0.9192565679550171],
		"scale":[1.0,
		1.0,
		1.0]
	},
	{
		"name":"Crystal_low.002_Crystal_0_fracturepart16",
		"mesh":15,
		"translation":[0.011107349768280983,
		0.04180483520030975,
		-0.015771016478538514],
		"rotation":[-0.015520159155130387,
		-0.35400286316871645,
		0.17148886620998383,
		-0.9192565679550171],
		"scale":[1.0,
		1.0,
		1.0]
	},
	{
		"name":"Crystal_low.002_Crystal_0_fracturepart17",
		"mesh":16,
		"translation":[-0.01788356341421604,
		-0.03624339774250984,
		0.008412899449467659],
		"rotation":[-0.015520159155130387,
		-0.35400286316871645,
		0.17148886620998383,
		-0.9192565679550171],
		"scale":[1.0,
		1.0,
		1.0]
	},
	{
		"name":"Crystal_low.002_Crystal_0_fracturepart18",
		"mesh":17,
		"translation":[0.00859964918345213,
		-0.04367951676249504,
		0.008098048157989979],
		"rotation":[-0.015520159155130387,
		-0.35400286316871645,
		0.17148886620998383,
		-0.9192565679550171],
		"scale":[1.0,
		1.0,
		1.0]
	},
	{
		"name":"Crystal_low.002_Crystal_0_fracturepart19",
		"mesh":18,
		"translation":[-0.012440545484423638,
		-0.04441702365875244,
		0.0031729075126349928],
		"rotation":[-0.015520159155130387,
		-0.35400286316871645,
		0.17148886620998383,
		-0.9192565679550171],
		"scale":[1.0,
		1.0,
		1.0]
	},
	{
		"name":"Crystal_low.002_Crystal_0_fracturepart20",
		"mesh":19,
		"translation":[0.0042897360399365429,
		0.04777989163994789,
		-0.0006279331282712519],
		"rotation":[-0.015520159155130387,
		-0.35400286316871645,
		0.17148886620998383,
		-0.9192565679550171],
		"scale":[1.0,
		1.0,
		1.0]
	}],
	"meshes":[{
		"name":"Crystal_low.002_Crystal_0_fracturepart1",
		"primitives":[{
			"attributes":{
				"POSITION":1,
				"NORMAL":2,
				"TEXCOORD_0":3
			},
			"indices":0
		}]
	},
	{
		"name":"Crystal_low.002_Crystal_0_fracturepart2",
		"primitives":[{
			"attributes":{
				"POSITION":5,
				"NORMAL":6,
				"TEXCOORD_0":7
			},
			"indices":4
		}]
	},
	{
		"name":"Crystal_low.002_Crystal_0_fracturepart3",
		"primitives":[{
			"attributes":{
				"POSITION":9,
				"NORMAL":10,
				"TEXCOORD_0":11
			},
			"indices":8
		}]
	},
	{
		"name":"Crystal_low.002_Crystal_0_fracturepart4",
		"primitives":[{
			"attributes":{
				"POSITION":13,
				"NORMAL":14,
				"TEXCOORD_0":15
			},
			"indices":12
		}]
	},
	{
		"name":"Crystal_low.002_Crystal_0_fracturepart5",
		"primitives":[{
			"attributes":{
				"POSITION":17,
				"NORMAL":18,
				"TEXCOORD_0":19
			},
			"indices":16
		}]
	},
	{
		"name":"Crystal_low.002_Crystal_0_fracturepart6",
		"primitives":[{
			"attributes":{
				"POSITION":21,
				"NORMAL":22,
				"TEXCOORD_0":23
			},
			"indices":20
		}]
	},
	{
		"name":"Crystal_low.002_Crystal_0_fracturepart7",
		"primitives":[{
			"attributes":{
				"POSITION":25,
				"NORMAL":26,
				"TEXCOORD_0":27
			},
			"indices":24
		}]
	},
	{
		"name":"Crystal_low.002_Crystal_0_fracturepart8",
		"primitives":[{
			"attributes":{
				"POSITION":29,
				"NORMAL":30,
				"TEXCOORD_0":31
			},
			"indices":28
		}]
	},
	{
		"name":"Crystal_low.002_Crystal_0_fracturepart9",
		"primitives":[{
			"attributes":{
				"POSITION":33,
				"NORMAL":34,
				"TEXCOORD_0":35
			},
			"indices":32
		}]
	},
	{
		"name":"Crystal_low.002_Crystal_0_fracturepart10",
		"primitives":[{
			"attributes":{
				"POSITION":37,
				"NORMAL":38,
				"TEXCOORD_0":39
			},
			"indices":36
		}]
	},
	{
		"name":"Crystal_low.002_Crystal_0_fracturepart11",
		"primitives":[{
			"attributes":{
				"POSITION":41,
				"NORMAL":42,
				"TEXCOORD_0":43
			},
			"indices":40
		}]
	},
	{
		"name":"Crystal_low.002_Crystal_0_fracturepart12",
		"primitives":[{
			"attributes":{
				"POSITION":45,
				"NORMAL":46,
				"TEXCOORD_0":47
			},
			"indices":44
		}]
	},
	{
		"name":"Crystal_low.002_Crystal_0_fracturepart13",
		"primitives":[{
			"attributes":{
				"POSITION":49,
				"NORMAL":50,
				"TEXCOORD_0":51
			},
			"indices":48
		}]
	},
	{
		"name":"Crystal_low.002_Crystal_0_fracturepart14",
		"primitives":[{
			"attributes":{
				"POSITION":53,
				"NORMAL":54,
				"TEXCOORD_0":55
			},
			"indices":52
		}]
	},
	{
		"name":"Crystal_low.002_Crystal_0_fracturepart15",
		"primitives":[{
			"attributes":{
				"POSITION":57,
				"NORMAL":58,
				"TEXCOORD_0":59
			},
			"indices":56
		}]
	},
	{
		"name":"Crystal_low.002_Crystal_0_fracturepart16",
		"primitives":[{
			"attributes":{
				"POSITION":61,
				"NORMAL":62,
				"TEXCOORD_0":63
			},
			"indices":60
		}]
	},
	{
		"name":"Crystal_low.002_Crystal_0_fracturepart17",
		"primitives":[{
			"attributes":{
				"POSITION":65,
				"NORMAL":66,
				"TEXCOORD_0":67
			},
			"indices":64
		}]
	},
	{
		"name":"Crystal_low.002_Crystal_0_fracturepart18",
		"primitives":[{
			"attributes":{
				"POSITION":69,
				"NORMAL":70,
				"TEXCOORD_0":71
			},
			"indices":68
		}]
	},
	{
		"name":"Crystal_low.002_Crystal_0_fracturepart19",
		"primitives":[{
			"attributes":{
				"POSITION":73,
				"NORMAL":74,
				"TEXCOORD_0":75
			},
			"indices":72
		}]
	},
	{
		"name":"Crystal_low.002_Crystal_0_fracturepart20",
		"primitives":[{
			"attributes":{
				"POSITION":77,
				"NORMAL":78,
				"TEXCOORD_0":79
			},
			"indices":76
		}]
	}],
	"accessors":[{
		"bufferView":0,
		"type":"SCALAR",
		"componentType":5123,
		"count":276,
		"byteOffset":0,
		"min":[0],
		"max":[275]
	},
	{
		"bufferView":1,
		"type":"VEC3",
		"componentType":5126,
		"count":276,
		"byteOffset":0,
		"min":[-0.015676457434892656,
		-0.022767318412661554,
		-0.012665134854614735],
		"max":[0.013579022139310837,
		0.016442030668258668,
		0.016304034739732744]
	},
	{
		"bufferView":1,
		"type":"VEC3",
		"componentType":5126,
		"count":276,
		"byteOffset":12,
		"min":[-0.9964298009872437,
		-0.9701040983200073,
		-0.9815503358840942],
		"max":[0.88177090883255,
		0.9473103284835815,
		0.8653671741485596]
	},
	{
		"bufferView":1,
		"type":"VEC2",
		"componentType":5126,
		"count":276,
		"byteOffset":24,
		"min":[0.11965179443359375,
		0.08913040161132813],
		"max":[0.5929314494132996,
		0.5865472555160523]
	},
	{
		"bufferView":2,
		"type":"SCALAR",
		"componentType":5123,
		"count":288,
		"byteOffset":0,
		"min":[0],
		"max":[287]
	},
	{
		"bufferView":3,
		"type":"VEC3",
		"componentType":5126,
		"count":288,
		"byteOffset":0,
		"min":[-0.008909978903830052,
		-0.01669728010892868,
		-0.015838243067264558],
		"max":[0.013523821718990803,
		0.012744296342134476,
		0.016912691295146943]
	},
	{
		"bufferView":3,
		"type":"VEC3",
		"componentType":5126,
		"count":288,
		"byteOffset":12,
		"min":[-0.9950646758079529,
		-0.9559754729270935,
		-0.8548523783683777],
		"max":[0.8594264388084412,
		0.7175753712654114,
		0.8405960202217102]
	},
	{
		"bufferView":3,
		"type":"VEC2",
		"componentType":5126,
		"count":288,
		"byteOffset":24,
		"min":[0.05252552032470703,
		0.02736377716064453],
		"max":[0.8940887451171875,
		0.6955300569534302]
	},
	{
		"bufferView":4,
		"type":"SCALAR",
		"componentType":5123,
		"count":330,
		"byteOffset":0,
		"min":[0],
		"max":[329]
	},
	{
		"bufferView":5,
		"type":"VEC3",
		"componentType":5126,
		"count":330,
		"byteOffset":0,
		"min":[-0.015420952811837197,
		-0.023549208417534829,
		-0.01350252516567707],
		"max":[0.01258721575140953,
		0.021853599697351457,
		0.009665261954069138]
	},
	{
		"bufferView":5,
		"type":"VEC3",
		"componentType":5126,
		"count":330,
		"byteOffset":12,
		"min":[-0.8250817060470581,
		-0.9066509008407593,
		-0.9917017221450806],
		"max":[0.9749518036842346,
		0.9581295251846314,
		0.9815503358840942]
	},
	{
		"bufferView":5,
		"type":"VEC2",
		"componentType":5126,
		"count":330,
		"byteOffset":24,
		"min":[0.12404823303222656,
		0.0015315413475036622],
		"max":[0.841278076171875,
		0.6058462858200073]
	},
	{
		"bufferView":6,
		"type":"SCALAR",
		"componentType":5123,
		"count":432,
		"byteOffset":0,
		"min":[0],
		"max":[431]
	},
	{
		"bufferView":7,
		"type":"VEC3",
		"componentType":5126,
		"count":432,
		"byteOffset":0,
		"min":[-0.025126362219452859,
		-0.019722767174243928,
		-0.02138367109000683],
		"max":[0.025288846343755723,
		0.022673383355140687,
		0.016399485990405084]
	},
	{
		"bufferView":7,
		"type":"VEC3",
		"componentType":5126,
		"count":432,
		"byteOffset":12,
		"min":[-0.7766311168670654,
		-0.9959184527397156,
		-0.8593832850456238],
		"max":[0.9689362645149231,
		0.7389615178108215,
		0.9830262064933777]
	},
	{
		"bufferView":7,
		"type":"VEC2",
		"componentType":5126,
		"count":432,
		"byteOffset":24,
		"min":[0.00213778018951416,
		0.05356121063232422],
		"max":[0.7353922128677368,
		0.7934608459472656]
	},
	{
		"bufferView":8,
		"type":"SCALAR",
		"componentType":5123,
		"count":222,
		"byteOffset":0,
		"min":[0],
		"max":[221]
	},
	{
		"bufferView":9,
		"type":"VEC3",
		"componentType":5126,
		"count":222,
		"byteOffset":0,
		"min":[-0.012438462115824223,
		-0.016484670341014863,
		-0.008128355257213116],
		"max":[0.017785293981432916,
		0.015419265255331993,
		0.008723536506295205]
	},
	{
		"bufferView":9,
		"type":"VEC3",
		"componentType":5126,
		"count":222,
		"byteOffset":12,
		"min":[-0.8594264388084412,
		-0.9758108258247376,
		-0.9922441840171814],
		"max":[0.6280596852302551,
		0.964615523815155,
		0.9626245498657227]
	},
	{
		"bufferView":9,
		"type":"VEC2",
		"componentType":5126,
		"count":222,
		"byteOffset":24,
		"min":[0.0031716227531433107,
		0.05028533935546875],
		"max":[0.8116455078125,
		0.81512451171875]
	},
	{
		"bufferView":10,
		"type":"SCALAR",
		"componentType":5123,
		"count":294,
		"byteOffset":0,
		"min":[0],
		"max":[293]
	},
	{
		"bufferView":11,
		"type":"VEC3",
		"componentType":5126,
		"count":294,
		"byteOffset":0,
		"min":[-0.011329520493745804,
		-0.017390059307217599,
		-0.018213404342532159],
		"max":[0.008660241030156613,
		0.01511531975120306,
		0.015481245703995228]
	},
	{
		"bufferView":11,
		"type":"VEC3",
		"componentType":5126,
		"count":294,
		"byteOffset":12,
		"min":[-0.992769181728363,
		-0.7175753712654114,
		-0.8422525525093079],
		"max":[0.9733421802520752,
		0.8196625113487244,
		0.9448451995849609]
	},
	{
		"bufferView":11,
		"type":"VEC2",
		"componentType":5126,
		"count":294,
		"byteOffset":24,
		"min":[0.0032932162284851076,
		0.01077127456665039],
		"max":[0.8939971923828125,
		0.9390106201171875]
	},
	{
		"bufferView":12,
		"type":"SCALAR",
		"componentType":5123,
		"count":246,
		"byteOffset":0,
		"min":[0],
		"max":[245]
	},
	{
		"bufferView":13,
		"type":"VEC3",
		"componentType":5126,
		"count":246,
		"byteOffset":0,
		"min":[-0.009773414582014084,
		-0.016651999205350877,
		-0.014842981472611428],
		"max":[0.007302023470401764,
		0.013140147551894188,
		0.010543475858867169]
	},
	{
		"bufferView":13,
		"type":"VEC3",
		"componentType":5126,
		"count":246,
		"byteOffset":12,
		"min":[-0.978697657585144,
		-0.9359683990478516,
		-0.8300243616104126],
		"max":[0.9930999279022217,
		0.9134111404418945,
		0.9171874523162842]
	},
	{
		"bufferView":13,
		"type":"VEC2",
		"componentType":5126,
		"count":246,
		"byteOffset":24,
		"min":[0.0018767714500427247,
		0.002659618854522705],
		"max":[0.98211669921875,
		0.77362060546875]
	},
	{
		"bufferView":14,
		"type":"SCALAR",
		"componentType":5123,
		"count":318,
		"byteOffset":0,
		"min":[0],
		"max":[317]
	},
	{
		"bufferView":15,
		"type":"VEC3",
		"componentType":5126,
		"count":318,
		"byteOffset":0,
		"min":[-0.015995744615793229,
		-0.008041293360292912,
		-0.017607439309358598],
		"max":[0.018917161971330644,
		0.01060545165091753,
		0.010389543138444424]
	},
	{
		"bufferView":15,
		"type":"VEC3",
		"componentType":5126,
		"count":318,
		"byteOffset":12,
		"min":[-0.7422814965248108,
		-0.9932264685630798,
		-0.8108308911323547],
		"max":[0.9688259959220886,
		0.8492295742034912,
		0.9463557004928589]
	},
	{
		"bufferView":15,
		"type":"VEC2",
		"componentType":5126,
		"count":318,
		"byteOffset":24,
		"min":[0.022701740264892579,
		0.0014751553535461426],
		"max":[0.914921760559082,
		0.998626708984375]
	},
	{
		"bufferView":16,
		"type":"SCALAR",
		"componentType":5123,
		"count":390,
		"byteOffset":0,
		"min":[0],
		"max":[389]
	},
	{
		"bufferView":17,
		"type":"VEC3",
		"componentType":5126,
		"count":390,
		"byteOffset":0,
		"min":[-0.019715173169970514,
		-0.017500555142760278,
		-0.017983203753829004],
		"max":[0.019531352445483209,
		0.018079297617077829,
		0.014171461574733258]
	},
	{
		"bufferView":17,
		"type":"VEC3",
		"componentType":5126,
		"count":390,
		"byteOffset":12,
		"min":[-0.9733365178108215,
		-0.994519829750061,
		-0.9626245498657227],
		"max":[0.9698647856712341,
		0.9932264685630798,
		0.9802162051200867]
	},
	{
		"bufferView":17,
		"type":"VEC2",
		"componentType":5126,
		"count":390,
		"byteOffset":24,
		"min":[0.3447113037109375,
		0.0014979243278503419],
		"max":[0.8322173357009888,
		0.998626708984375]
	},
	{
		"bufferView":18,
		"type":"SCALAR",
		"componentType":5123,
		"count":240,
		"byteOffset":0,
		"min":[0],
		"max":[239]
	},
	{
		"bufferView":19,
		"type":"VEC3",
		"componentType":5126,
		"count":240,
		"byteOffset":0,
		"min":[-0.017334455624222757,
		-0.01762818731367588,
		-0.020132921636104585],
		"max":[0.016339784488081933,
		0.018473509699106218,
		0.012707584537565709]
	},
	{
		"bufferView":19,
		"type":"VEC3",
		"componentType":5126,
		"count":240,
		"byteOffset":12,
		"min":[-0.8490114808082581,
		-0.9751774668693543,
		-0.7852245569229126],
		"max":[0.8996627330780029,
		0.9959184527397156,
		0.9997576475143433]
	},
	{
		"bufferView":19,
		"type":"VEC2",
		"componentType":5126,
		"count":240,
		"byteOffset":24,
		"min":[0.15936660766601563,
		0.18186569213867188],
		"max":[0.731781005859375,
		0.86572265625]
	},
	{
		"bufferView":20,
		"type":"SCALAR",
		"componentType":5123,
		"count":210,
		"byteOffset":0,
		"min":[0],
		"max":[209]
	},
	{
		"bufferView":21,
		"type":"VEC3",
		"componentType":5126,
		"count":210,
		"byteOffset":0,
		"min":[-0.009827709756791592,
		-0.015060980804264546,
		-0.019505390897393228],
		"max":[0.01230698637664318,
		0.02081112191081047,
		0.01693914458155632]
	},
	{
		"bufferView":21,
		"type":"VEC3",
		"componentType":5126,
		"count":210,
		"byteOffset":12,
		"min":[-0.8996627330780029,
		-0.9134111404418945,
		-0.8298003673553467],
		"max":[0.994415819644928,
		0.669259786605835,
		0.9996842741966248]
	},
	{
		"bufferView":21,
		"type":"VEC2",
		"componentType":5126,
		"count":210,
		"byteOffset":24,
		"min":[0.014491796493530274,
		0.0015543997287750245],
		"max":[0.969329833984375,
		0.8168182373046875]
	},
	{
		"bufferView":22,
		"type":"SCALAR",
		"componentType":5123,
		"count":342,
		"byteOffset":0,
		"min":[0],
		"max":[341]
	},
	{
		"bufferView":23,
		"type":"VEC3",
		"componentType":5126,
		"count":342,
		"byteOffset":0,
		"min":[-0.0141243115067482,
		-0.015137291513383389,
		-0.010678204707801342],
		"max":[0.017096303403377534,
		0.016392184421420099,
		0.010308138094842434]
	},
	{
		"bufferView":23,
		"type":"VEC3",
		"componentType":5126,
		"count":342,
		"byteOffset":12,
		"min":[-0.835096538066864,
		-0.9372811913490295,
		-0.9939777255058289],
		"max":[0.867732048034668,
		0.9891167283058167,
		0.943969190120697]
	},
	{
		"bufferView":23,
		"type":"VEC2",
		"componentType":5126,
		"count":342,
		"byteOffset":24,
		"min":[0.0015498101711273194,
		0.020904541015625],
		"max":[0.8843231201171875,
		0.748687744140625]
	},
	{
		"bufferView":24,
		"type":"SCALAR",
		"componentType":5123,
		"count":258,
		"byteOffset":0,
		"min":[0],
		"max":[257]
	},
	{
		"bufferView":25,
		"type":"VEC3",
		"componentType":5126,
		"count":258,
		"byteOffset":0,
		"min":[-0.018967077136039735,
		-0.012569821439683438,
		-0.006965612061321735],
		"max":[0.011734009720385075,
		0.011245065368711949,
		0.010055079124867916]
	},
	{
		"bufferView":25,
		"type":"VEC3",
		"componentType":5126,
		"count":258,
		"byteOffset":12,
		"min":[-0.9868612885475159,
		-0.5714740753173828,
		-0.9681308269500732],
		"max":[0.9842895269393921,
		0.879922091960907,
		0.9996554255485535]
	},
	{
		"bufferView":25,
		"type":"VEC2",
		"componentType":5126,
		"count":258,
		"byteOffset":24,
		"min":[0.2066802978515625,
		0.168548583984375],
		"max":[0.6005096435546875,
		0.8665771484375]
	},
	{
		"bufferView":26,
		"type":"SCALAR",
		"componentType":5123,
		"count":366,
		"byteOffset":0,
		"min":[0],
		"max":[365]
	},
	{
		"bufferView":27,
		"type":"VEC3",
		"componentType":5126,
		"count":366,
		"byteOffset":0,
		"min":[-0.017271997407078744,
		-0.025200799107551576,
		-0.01666601561009884],
		"max":[0.018779665231704713,
		0.02088136412203312,
		0.007676560897380114]
	},
	{
		"bufferView":27,
		"type":"VEC3",
		"componentType":5126,
		"count":366,
		"byteOffset":12,
		"min":[-0.9749518036842346,
		-0.989117443561554,
		-0.9916084408760071],
		"max":[0.9930161237716675,
		0.9872215390205383,
		0.925715982913971]
	},
	{
		"bufferView":27,
		"type":"VEC2",
		"componentType":5126,
		"count":366,
		"byteOffset":24,
		"min":[0.026196956634521486,
		0.0013959407806396485],
		"max":[0.8817138671875,
		0.883087158203125]
	},
	{
		"bufferView":28,
		"type":"SCALAR",
		"componentType":5123,
		"count":306,
		"byteOffset":0,
		"min":[0],
		"max":[305]
	},
	{
		"bufferView":29,
		"type":"VEC3",
		"componentType":5126,
		"count":306,
		"byteOffset":0,
		"min":[-0.017413193359971048,
		-0.021948283538222314,
		-0.014783475548028946],
		"max":[0.016893772408366205,
		0.022631613537669183,
		0.02061709202826023]
	},
	{
		"bufferView":29,
		"type":"VEC3",
		"componentType":5126,
		"count":306,
		"byteOffset":12,
		"min":[-0.9730184078216553,
		-0.979070246219635,
		-0.925715982913971],
		"max":[0.9944462776184082,
		0.994519829750061,
		0.7852245569229126]
	},
	{
		"bufferView":29,
		"type":"VEC2",
		"componentType":5126,
		"count":306,
		"byteOffset":24,
		"min":[0.09746551513671875,
		0.0013959407806396485],
		"max":[0.82843017578125,
		0.842315673828125]
	},
	{
		"bufferView":30,
		"type":"SCALAR",
		"componentType":5123,
		"count":216,
		"byteOffset":0,
		"min":[0],
		"max":[215]
	},
	{
		"bufferView":31,
		"type":"VEC3",
		"componentType":5126,
		"count":216,
		"byteOffset":0,
		"min":[-0.01098044216632843,
		-0.008125152438879013,
		-0.008266397751867772],
		"max":[0.015035353600978852,
		0.010373865254223347,
		0.006160058081150055]
	},
	{
		"bufferView":31,
		"type":"VEC3",
		"componentType":5126,
		"count":216,
		"byteOffset":12,
		"min":[-0.9053950905799866,
		-0.964615523815155,
		-0.9718066453933716],
		"max":[0.6347251534461975,
		0.6586212515830994,
		0.8875471353530884]
	},
	{
		"bufferView":31,
		"type":"VEC2",
		"componentType":5126,
		"count":216,
		"byteOffset":24,
		"min":[0.0025647878646850588,
		0.0912322998046875],
		"max":[0.8732630610466003,
		0.9011993408203125]
	},
	{
		"bufferView":32,
		"type":"SCALAR",
		"componentType":5123,
		"count":312,
		"byteOffset":0,
		"min":[0],
		"max":[311]
	},
	{
		"bufferView":33,
		"type":"VEC3",
		"componentType":5126,
		"count":312,
		"byteOffset":0,
		"min":[-0.01809539645910263,
		-0.01873919367790222,
		-0.020184680819511415],
		"max":[0.013731367886066437,
		0.01438362430781126,
		0.012693430297076702]
	},
	{
		"bufferView":33,
		"type":"VEC3",
		"componentType":5126,
		"count":312,
		"byteOffset":12,
		"min":[-0.9869269132614136,
		-0.9355750679969788,
		-0.9456666111946106],
		"max":[0.8972821831703186,
		0.9701095223426819,
		0.9681308269500732]
	},
	{
		"bufferView":33,
		"type":"VEC2",
		"componentType":5126,
		"count":312,
		"byteOffset":24,
		"min":[0.054927825927734378,
		0.12100280821323395],
		"max":[0.918853759765625,
		0.90234375]
	},
	{
		"bufferView":34,
		"type":"SCALAR",
		"componentType":5123,
		"count":144,
		"byteOffset":0,
		"min":[0],
		"max":[143]
	},
	{
		"bufferView":35,
		"type":"VEC3",
		"componentType":5126,
		"count":144,
		"byteOffset":0,
		"min":[-0.010394472628831864,
		-0.013637791387736798,
		-0.011210557073354721],
		"max":[0.008297992870211602,
		0.011314810253679753,
		0.006355928722769022]
	},
	{
		"bufferView":35,
		"type":"VEC3",
		"componentType":5126,
		"count":144,
		"byteOffset":12,
		"min":[-0.9842895269393921,
		-0.9359732270240784,
		-0.9171874523162842],
		"max":[0.8025301694869995,
		0.8820542693138123,
		0.9996289014816284]
	},
	{
		"bufferView":35,
		"type":"VEC2",
		"componentType":5126,
		"count":144,
		"byteOffset":24,
		"min":[0.0023835301399230959,
		0.10417082905769348],
		"max":[0.9345855712890625,
		0.90234375]
	},
	{
		"bufferView":36,
		"type":"SCALAR",
		"componentType":5123,
		"count":222,
		"byteOffset":0,
		"min":[0],
		"max":[221]
	},
	{
		"bufferView":37,
		"type":"VEC3",
		"componentType":5126,
		"count":222,
		"byteOffset":0,
		"min":[-0.009359682910144329,
		-0.011943873018026352,
		-0.010633678175508976],
		"max":[0.012161379680037499,
		0.015632538124918939,
		0.017824184149503709]
	},
	{
		"bufferView":37,
		"type":"VEC3",
		"componentType":5126,
		"count":222,
		"byteOffset":12,
		"min":[-0.8972882628440857,
		-0.9361359477043152,
		-0.9439598917961121],
		"max":[0.978697657585144,
		0.9751774668693543,
		0.7309874296188355]
	},
	{
		"bufferView":37,
		"type":"VEC2",
		"componentType":5126,
		"count":222,
		"byteOffset":24,
		"min":[0.09853758662939072,
		0.07360626757144928],
		"max":[0.9641876220703125,
		0.9022369384765625]
	},
	{
		"bufferView":38,
		"type":"SCALAR",
		"componentType":5123,
		"count":216,
		"byteOffset":0,
		"min":[0],
		"max":[215]
	},
	{
		"bufferView":39,
		"type":"VEC3",
		"componentType":5126,
		"count":216,
		"byteOffset":0,
		"min":[-0.010845698416233063,
		-0.011014393530786038,
		-0.012783804908394814],
		"max":[0.011454496532678604,
		0.01250931341201067,
		0.01685938611626625]
	},
	{
		"bufferView":39,
		"type":"VEC3",
		"componentType":5126,
		"count":216,
		"byteOffset":12,
		"min":[-0.9862908124923706,
		-0.7770442962646484,
		-0.9717352390289307],
		"max":[0.9053950905799866,
		0.8196408748626709,
		0.5384299159049988]
	},
	{
		"bufferView":39,
		"type":"VEC2",
		"componentType":5126,
		"count":216,
		"byteOffset":24,
		"min":[0.0013649165630340577,
		0.0013649463653564454],
		"max":[0.914921760559082,
		0.9738616943359375]
	}],
	"bufferViews":[{
		"buffer":0,
		"byteOffset":0,
		"byteLength":552,
		"target":34963
	},
	{
		"buffer":0,
		"byteOffset":552,
		"byteLength":8832,
		"target":34962,
		"byteStride":32
	},
	{
		"buffer":1,
		"byteOffset":0,
		"byteLength":576,
		"target":34963
	},
	{
		"buffer":1,
		"byteOffset":576,
		"byteLength":9216,
		"target":34962,
		"byteStride":32
	},
	{
		"buffer":2,
		"byteOffset":0,
		"byteLength":660,
		"target":34963
	},
	{
		"buffer":2,
		"byteOffset":660,
		"byteLength":10560,
		"target":34962,
		"byteStride":32
	},
	{
		"buffer":3,
		"byteOffset":0,
		"byteLength":864,
		"target":34963
	},
	{
		"buffer":3,
		"byteOffset":864,
		"byteLength":13824,
		"target":34962,
		"byteStride":32
	},
	{
		"buffer":4,
		"byteOffset":0,
		"byteLength":444,
		"target":34963
	},
	{
		"buffer":4,
		"byteOffset":444,
		"byteLength":7104,
		"target":34962,
		"byteStride":32
	},
	{
		"buffer":5,
		"byteOffset":0,
		"byteLength":588,
		"target":34963
	},
	{
		"buffer":5,
		"byteOffset":588,
		"byteLength":9408,
		"target":34962,
		"byteStride":32
	},
	{
		"buffer":6,
		"byteOffset":0,
		"byteLength":492,
		"target":34963
	},
	{
		"buffer":6,
		"byteOffset":492,
		"byteLength":7872,
		"target":34962,
		"byteStride":32
	},
	{
		"buffer":7,
		"byteOffset":0,
		"byteLength":636,
		"target":34963
	},
	{
		"buffer":7,
		"byteOffset":636,
		"byteLength":10176,
		"target":34962,
		"byteStride":32
	},
	{
		"buffer":8,
		"byteOffset":0,
		"byteLength":780,
		"target":34963
	},
	{
		"buffer":8,
		"byteOffset":780,
		"byteLength":12480,
		"target":34962,
		"byteStride":32
	},
	{
		"buffer":9,
		"byteOffset":0,
		"byteLength":480,
		"target":34963
	},
	{
		"buffer":9,
		"byteOffset":480,
		"byteLength":7680,
		"target":34962,
		"byteStride":32
	},
	{
		"buffer":10,
		"byteOffset":0,
		"byteLength":420,
		"target":34963
	},
	{
		"buffer":10,
		"byteOffset":420,
		"byteLength":6720,
		"target":34962,
		"byteStride":32
	},
	{
		"buffer":11,
		"byteOffset":0,
		"byteLength":684,
		"target":34963
	},
	{
		"buffer":11,
		"byteOffset":684,
		"byteLength":10944,
		"target":34962,
		"byteStride":32
	},
	{
		"buffer":12,
		"byteOffset":0,
		"byteLength":516,
		"target":34963
	},
	{
		"buffer":12,
		"byteOffset":516,
		"byteLength":8256,
		"target":34962,
		"byteStride":32
	},
	{
		"buffer":13,
		"byteOffset":0,
		"byteLength":732,
		"target":34963
	},
	{
		"buffer":13,
		"byteOffset":732,
		"byteLength":11712,
		"target":34962,
		"byteStride":32
	},
	{
		"buffer":14,
		"byteOffset":0,
		"byteLength":612,
		"target":34963
	},
	{
		"buffer":14,
		"byteOffset":612,
		"byteLength":9792,
		"target":34962,
		"byteStride":32
	},
	{
		"buffer":15,
		"byteOffset":0,
		"byteLength":432,
		"target":34963
	},
	{
		"buffer":15,
		"byteOffset":432,
		"byteLength":6912,
		"target":34962,
		"byteStride":32
	},
	{
		"buffer":16,
		"byteOffset":0,
		"byteLength":624,
		"target":34963
	},
	{
		"buffer":16,
		"byteOffset":624,
		"byteLength":9984,
		"target":34962,
		"byteStride":32
	},
	{
		"buffer":17,
		"byteOffset":0,
		"byteLength":288,
		"target":34963
	},
	{
		"buffer":17,
		"byteOffset":288,
		"byteLength":4608,
		"target":34962,
		"byteStride":32
	},
	{
		"buffer":18,
		"byteOffset":0,
		"byteLength":444,
		"target":34963
	},
	{
		"buffer":18,
		"byteOffset":444,
		"byteLength":7104,
		"target":34962,
		"byteStride":32
	},
	{
		"buffer":19,
		"byteOffset":0,
		"byteLength":432,
		"target":34963
	},
	{
		"buffer":19,
		"byteOffset":432,
		"byteLength":6912,
		"target":34962,
		"byteStride":32
	}],
	"buffers":[{
		"uri":"data:application/octet-stream;base64,",
		"byteLength":9384
	},
	{
		"uri":"data:application/octet-stream;base64,",
		"byteLength":9792
	},
	{
		"uri":"data:application/octet-stream;base64,",
		"byteLength":11220
	},
	{
		"uri":"data:application/octet-stream;base64,",
		"byteLength":14688
	},
	{
		"uri":"data:application/octet-stream;base64,",
		"byteLength":7548
	},
	{
		"uri":"data:application/octet-stream;base64,",
		"byteLength":9996
	},
	{
		"uri":"data:application/octet-stream;base64,",
		"byteLength":8364
	},
	{
		"uri":"data:application/octet-stream;base64,",
		"byteLength":10812
	},
	{
		"uri":"data:application/octet-stream;base64,",
		"byteLength":13260
	},
	{
		"uri":"data:application/octet-stream;base64,",
		"byteLength":8160
	},
	{
		"uri":"data:application/octet-stream;base64,",
		"byteLength":7140
	},
	{
		"uri":"data:application/octet-stream;base64,",
		"byteLength":11628
	},
	{
		"uri":"data:application/octet-stream;base64,",
		"byteLength":8772
	},
	{
		"uri":"data:application/octet-stream;base64,",
		"byteLength":12444
	},
	{
		"uri":"data:application/octet-stream;base64,",
		"byteLength":10404
	},
	{
		"uri":"data:application/octet-stream;base64,",
		"byteLength":7344
	},
	{
		"uri":"data:application/octet-stream;base64,",
		"byteLength":10608
	},
	{
		"uri":"data:application/octet-stream;base64,",
		"byteLength":4896
	},
	{
		"uri":"data:application/octet-stream;base64,",
		"byteLength":7548
	},
	{
		"uri":"data:application/octet-stream;base64,",
		"byteLength":7344
	}]
}